<svg width="24" height="24" viewBox="0 0 24 24" fill="none" xmlns="http://www.w3.org/2000/svg">
<path d="M2.40002 5.99998C2.40002 5.36346 2.65288 4.75301 3.10297 4.30292C3.55306 3.85283 4.1635 3.59998 4.80002 3.59998H13.2C13.8365 3.59998 14.447 3.85283 14.8971 4.30292C15.3472 4.75301 15.6 5.36346 15.6 5.99998V10.8C15.6 11.4365 15.3472 12.0469 14.8971 12.497C14.447 12.9471 13.8365 13.2 13.2 13.2H10.8L7.20002 16.8V13.2H4.80002C4.1635 13.2 3.55306 12.9471 3.10297 12.497C2.65288 12.0469 2.40002 11.4365 2.40002 10.8V5.99998Z" fill="#212121"/>
<path d="M18 8.40002V10.8C18 12.0731 17.4943 13.294 16.5941 14.1941C15.6939 15.0943 14.473 15.6 13.2 15.6H11.7936L9.67438 17.7204C10.0104 17.8992 10.3932 18 10.8 18H13.2L16.8 21.6V18H19.2C19.8365 18 20.4469 17.7472 20.897 17.2971C21.3471 16.847 21.6 16.2365 21.6 15.6V10.8C21.6 10.1635 21.3471 9.55306 20.897 9.10297C20.4469 8.65288 19.8365 8.40002 19.2 8.40002H18Z" fill="#212121"/>
</svg>
