<svg width="20" height="20" viewBox="0 0 20 20" fill="none" xmlns="http://www.w3.org/2000/svg">
<path fill-rule="evenodd" clip-rule="evenodd" d="M10 0.400024C10.3183 0.400024 10.6235 0.526453 10.8486 0.751496C11.0736 0.97654 11.2 1.28176 11.2 1.60002V2.80002C11.2 3.11828 11.0736 3.42351 10.8486 3.64855C10.6235 3.8736 10.3183 4.00002 10 4.00002C9.68176 4.00002 9.37654 3.8736 9.1515 3.64855C8.92645 3.42351 8.80002 3.11828 8.80002 2.80002V1.60002C8.80002 1.28176 8.92645 0.97654 9.1515 0.751496C9.37654 0.526453 9.68176 0.400024 10 0.400024ZM14.8 10C14.8 11.2731 14.2943 12.494 13.3941 13.3941C12.494 14.2943 11.2731 14.8 10 14.8C8.72699 14.8 7.50609 14.2943 6.60591 13.3941C5.70574 12.494 5.20002 11.2731 5.20002 10C5.20002 8.72699 5.70574 7.50609 6.60591 6.60591C7.50609 5.70574 8.72699 5.20002 10 5.20002C11.2731 5.20002 12.494 5.70574 13.3941 6.60591C14.2943 7.50609 14.8 8.72699 14.8 10ZM14.2432 15.94L15.0916 16.7884C15.3179 17.007 15.6211 17.128 15.9357 17.1252C16.2503 17.1225 16.5513 16.9963 16.7738 16.7738C16.9963 16.5513 17.1225 16.2503 17.1252 15.9357C17.128 15.6211 17.007 15.3179 16.7884 15.0916L15.94 14.2432C15.7137 14.0246 15.4106 13.9037 15.0959 13.9064C14.7813 13.9092 14.4803 14.0354 14.2578 14.2578C14.0354 14.4803 13.9092 14.7813 13.9064 15.0959C13.9037 15.4106 14.0246 15.7137 14.2432 15.94ZM16.7872 3.21162C17.0122 3.43666 17.1386 3.74183 17.1386 4.06002C17.1386 4.37822 17.0122 4.68339 16.7872 4.90842L15.94 5.75682C15.8293 5.87144 15.6969 5.96286 15.5505 6.02575C15.4041 6.08864 15.2466 6.12174 15.0873 6.12313C14.928 6.12451 14.77 6.09415 14.6225 6.03381C14.475 5.97347 14.341 5.88437 14.2284 5.7717C14.1157 5.65903 14.0266 5.52504 13.9662 5.37757C13.9059 5.23009 13.8755 5.07208 13.8769 4.91274C13.8783 4.75341 13.9114 4.59594 13.9743 4.44954C14.0372 4.30313 14.1286 4.17072 14.2432 4.06002L15.0916 3.21162C15.3167 2.98666 15.6218 2.86028 15.94 2.86028C16.2582 2.86028 16.5622 2.98666 16.7872 3.21162ZM18.4 11.2C18.7183 11.2 19.0235 11.0736 19.2486 10.8486C19.4736 10.6235 19.6 10.3183 19.6 10C19.6 9.68176 19.4736 9.37654 19.2486 9.1515C19.0235 8.92645 18.7183 8.80002 18.4 8.80002H17.2C16.8818 8.80002 16.5765 8.92645 16.3515 9.1515C16.1265 9.37654 16 9.68176 16 10C16 10.3183 16.1265 10.6235 16.3515 10.8486C16.5765 11.0736 16.8818 11.2 17.2 11.2H18.4ZM10 16C10.3183 16 10.6235 16.1265 10.8486 16.3515C11.0736 16.5765 11.2 16.8818 11.2 17.2V18.4C11.2 18.7183 11.0736 19.0235 10.8486 19.2486C10.6235 19.4736 10.3183 19.6 10 19.6C9.68176 19.6 9.37654 19.4736 9.1515 19.2486C8.92645 19.0235 8.80002 18.7183 8.80002 18.4V17.2C8.80002 16.8818 8.92645 16.5765 9.1515 16.3515C9.37654 16.1265 9.68176 16 10 16ZM4.06002 5.75682C4.17144 5.86832 4.30372 5.95677 4.44932 6.01714C4.59492 6.07751 4.75098 6.10861 4.9086 6.10867C5.06622 6.10872 5.2223 6.07773 5.36795 6.01747C5.51359 5.9572 5.64593 5.86884 5.75742 5.75742C5.86892 5.64601 5.95737 5.51373 6.01774 5.36813C6.07811 5.22253 6.10921 5.06647 6.10927 4.90885C6.10932 4.75123 6.07833 4.59514 6.01807 4.4495C5.9578 4.30386 5.86944 4.17152 5.75802 4.06002L4.90842 3.21162C4.6821 2.99303 4.37898 2.87208 4.06434 2.87482C3.74971 2.87755 3.44873 3.00375 3.22624 3.22624C3.00375 3.44873 2.87755 3.74971 2.87482 4.06434C2.87208 4.37898 2.99303 4.6821 3.21162 4.90842L4.06002 5.75682ZM5.75682 15.94L4.90842 16.7884C4.6821 17.007 4.37898 17.128 4.06434 17.1252C3.74971 17.1225 3.44873 16.9963 3.22624 16.7738C3.00375 16.5513 2.87755 16.2503 2.87482 15.9357C2.87208 15.6211 2.99303 15.3179 3.21162 15.0916L4.06002 14.2432C4.28635 14.0246 4.58947 13.9037 4.90411 13.9064C5.21874 13.9092 5.51972 14.0354 5.74221 14.2578C5.9647 14.4803 6.0909 14.7813 6.09363 15.0959C6.09637 15.4106 5.97541 15.7137 5.75682 15.94ZM2.80002 11.2C3.11828 11.2 3.42351 11.0736 3.64855 10.8486C3.8736 10.6235 4.00002 10.3183 4.00002 10C4.00002 9.68176 3.8736 9.37654 3.64855 9.1515C3.42351 8.92645 3.11828 8.80002 2.80002 8.80002H1.60002C1.28176 8.80002 0.97654 8.92645 0.751496 9.1515C0.526453 9.37654 0.400024 9.68176 0.400024 10C0.400024 10.3183 0.526453 10.6235 0.751496 10.8486C0.97654 11.0736 1.28176 11.2 1.60002 11.2H2.80002Z" fill="#212121"/>
</svg>
