<svg width="20" height="20" viewBox="0 0 20 20" fill="none" xmlns="http://www.w3.org/2000/svg">
<path d="M16.3834 3.32506C14.1834 1.82506 11.4667 2.52506 10 4.24172C8.53337 2.52506 5.8167 1.81672 3.6167 3.32506C2.45004 4.12506 1.7167 5.47506 1.6667 6.90006C1.55004 10.1334 4.4167 12.7251 8.7917 16.7001L8.87504 16.7751C9.50837 17.3501 10.4834 17.3501 11.1167 16.7667L11.2084 16.6834C15.5834 12.7167 18.4417 10.1251 18.3334 6.89172C18.2834 5.47506 17.55 4.12506 16.3834 3.32506ZM10.0834 15.4584L10 15.5417L9.9167 15.4584C5.95004 11.8667 3.33337 9.49172 3.33337 7.08339C3.33337 5.41672 4.58337 4.16672 6.25004 4.16672C7.53337 4.16672 8.78337 4.99172 9.22504 6.13339H10.7834C11.2167 4.99172 12.4667 4.16672 13.75 4.16672C15.4167 4.16672 16.6667 5.41672 16.6667 7.08339C16.6667 9.49172 14.05 11.8667 10.0834 15.4584Z" fill="#030212"/>
</svg>
